<svg width="16" height="16" viewBox="0 0 16 16" fill="none" xmlns="http://www.w3.org/2000/svg">
<path d="M2.28 1.22L14.78 13.72L13.72 14.78L11.55 12.61C10.49 13.13 9.29 13.5 8 13.5C4.5 13.5 1.73 11.39 0.5 8.5C1.08 7.13 2.06 5.96 3.29 5.07L1.22 2.28L2.28 1.22ZM4.39 6.17C3.45 6.77 2.68 7.57 2.16 8.5C3.29 10.66 5.45 12 8 12C8.84 12 9.63 11.85 10.35 11.58L9.18 10.41C8.82 10.6 8.42 10.7 8 10.7C6.62 10.7 5.5 9.58 5.5 8.2C5.5 7.78 5.6 7.38 5.79 7.02L4.39 6.17Z" fill="#7A7A7A"/>
<path d="M8 3.5C11.5 3.5 14.27 5.61 15.5 8.5C15.13 9.36 14.54 10.15 13.82 10.82L12.75 9.75C13.17 9.38 13.54 8.96 13.84 8.5C12.71 6.34 10.55 5 8 5C7.54 5 7.1 5.05 6.68 5.14L5.45 3.91C6.25 3.65 7.1 3.5 8 3.5Z" fill="#7A7A7A"/>
</svg>
