<svg width="27" height="26" viewBox="0 0 27 26" fill="none" xmlns="http://www.w3.org/2000/svg">
<path d="M13.25 15.2678L0.25 20.2678V5.26782L13.25 0.267822V15.2678Z" fill="#F2F2F2"/>
<path d="M13.25 15.2678L26.25 20.2678V5.26782L13.25 0.267822V15.2678Z" fill="white"/>
<path d="M13.25 15.2678L26.25 20.2678L13.25 25.2678L0.75 20.2678L13.25 15.2678Z" fill="white"/>
<path d="M13.2497 23.2678L2.75002 19.2673L13.2497 14.7663L24.2499 19.2673L13.2497 23.2678Z" fill="#4C42D9" stroke="#4C42D9" stroke-width="0.896881"/>
<path d="M9.78115 12.6341C9.84353 12.5662 9.86076 12.5505 9.90639 12.47C10.0633 12.521 10.1035 12.7432 10.3342 12.7976C10.5455 12.8474 10.6951 12.7986 10.8979 12.7603C10.9747 12.7966 11.1108 12.8397 11.1385 12.9025C11.3426 12.9851 11.4796 12.9758 11.6711 13.0473C12.5015 13.3574 13.3877 13.4535 14.2523 13.2582C14.4864 13.2007 14.7373 13.0405 14.9644 12.9765C15.071 12.9464 15.2845 12.8957 15.3923 12.8721L15.4133 12.8676L15.4495 12.8131C15.6594 12.8629 16.1758 12.8058 16.3592 12.6722C16.4617 12.5976 16.4776 12.5033 16.5906 12.4701C16.6302 12.5416 16.6423 12.5579 16.6968 12.6183L16.7105 12.6332C16.7558 12.7599 16.8933 13.1295 16.8999 13.2509L17.0069 13.447L17.0122 13.5105C17.3746 14.7079 17.8205 15.8747 18.3462 17.0011C18.3907 17.0984 18.6249 17.5395 18.6335 17.6008C18.6531 17.7526 18.8432 18.0712 18.9228 18.2201C18.0514 19.8296 16.1429 20.0849 14.5763 20.3413C13.6944 20.4855 13.0561 20.5602 12.1549 20.3895C10.5659 20.0885 8.59837 19.927 7.59955 18.3681C7.49629 18.2063 7.78452 17.8503 7.83683 17.6423C7.85996 17.5288 8.26134 16.7667 8.32995 16.6205C8.8196 15.577 9.16495 14.4597 9.54153 13.3661C9.60794 13.1174 9.68796 12.8729 9.78115 12.6341Z" fill="url(#paint0_linear_1367_1199)"/>
<path d="M9.78115 12.6341C9.84353 12.5662 9.86076 12.5505 9.90639 12.47C10.0633 12.521 10.1035 12.7432 10.3342 12.7976C10.5455 12.8474 10.6951 12.7986 10.8979 12.7603C10.9747 12.7966 11.1108 12.8397 11.1385 12.9025C11.3426 12.9851 11.4796 12.9758 11.6711 13.0473C12.5015 13.3574 13.3877 13.4535 14.2523 13.2582C14.4864 13.2007 14.7373 13.0405 14.9644 12.9765C15.071 12.9464 15.2845 12.8957 15.3923 12.8721L15.4133 12.8676L15.4495 12.8131C15.6594 12.8629 16.1758 12.8058 16.3592 12.6722C16.4617 12.5976 16.4776 12.5033 16.5906 12.4701C16.6302 12.5416 16.6423 12.5579 16.6968 12.6183L16.7105 12.6332C16.7558 12.7599 16.8933 13.1295 16.8999 13.2509C16.8709 13.7625 17.5548 15.0714 17.6294 15.6327C17.6338 15.666 17.4971 15.8539 17.4673 15.8786C16.9547 16.3048 16.0343 16.6836 15.4387 16.9104C13.5975 17.6114 11.5018 17.3161 9.78937 16.3639C9.49148 16.1983 8.95903 16.0246 8.86334 15.6389C8.91967 15.1455 9.58432 13.8511 9.54153 13.3661C9.60794 13.1174 9.68796 12.8729 9.78115 12.6341Z" fill="url(#paint1_linear_1367_1199)"/>
<path d="M14.0225 6.43571C14.1103 6.33447 14.1565 6.28099 14.2576 6.19284C14.4572 6.17127 14.3353 6.35317 14.5904 6.44179C14.8151 6.78068 15.2221 7.99798 15.4099 8.44292L15.4837 8.64543C15.7222 9.46049 16.2238 10.8204 16.3818 11.5892C16.4869 11.8387 16.6451 12.3663 16.7105 12.6332L16.6968 12.6183C16.6423 12.5579 16.6302 12.5416 16.5906 12.4701C16.4776 12.5033 16.4617 12.5976 16.3592 12.6722C16.1758 12.8058 15.6594 12.8629 15.4495 12.8131L15.4133 12.8676L15.3923 12.8721C15.2845 12.8957 15.071 12.9464 14.9644 12.9765C14.7373 13.0405 14.4864 13.2007 14.2523 13.2582C13.3877 13.4535 12.5015 13.3574 11.6711 13.0473C11.4796 12.9758 11.3426 12.9851 11.1385 12.9025C11.1108 12.8397 10.9747 12.7966 10.8979 12.7603C10.6951 12.7986 10.5455 12.8474 10.3342 12.7976C10.1035 12.7432 10.0633 12.521 9.90639 12.47C9.86076 12.5505 9.84353 12.5662 9.78115 12.6341C9.87095 12.3229 9.97898 11.9077 10.1012 11.6188C10.1196 11.3025 10.8289 9.20824 10.9661 8.78332L11.0038 8.66815C11.1957 8.23452 11.6336 7.07894 11.7917 6.62556L11.8952 6.47669C11.9359 6.49305 11.9517 6.47936 12.0025 6.46798C12.0274 6.43352 12.1204 6.30964 12.1593 6.32325C13.0875 6.64737 13.0746 6.70595 14.0225 6.43571Z" fill="url(#paint2_linear_1367_1199)"/>
<path d="M13.2195 4.75415C13.8459 4.75415 14.2893 5.8228 14.5904 6.44179C14.3353 6.35317 14.4572 6.17127 14.2576 6.19284C14.1565 6.28099 14.1103 6.33447 14.0225 6.43571C13.0746 6.70595 13.0875 6.64737 12.1593 6.32325C12.1204 6.30964 12.0274 6.43352 12.0025 6.46798C11.9517 6.47936 11.9359 6.49305 11.8952 6.47669C12.1594 5.91114 12.593 4.75415 13.2195 4.75415Z" fill="url(#paint3_linear_1367_1199)"/>
<path d="M0.25 5.26782L13.25 0.267822L26.25 5.26782V20.2678" stroke="#E1E1E1" stroke-width="0.5" stroke-linecap="round"/>
<path d="M0.25 5.26782V20.2678L13.25 25.2678L26.25 20.2678" stroke="#7A7A7A" stroke-width="0.5"/>
<defs>
<linearGradient id="paint0_linear_1367_1199" x1="13.2501" y1="20.4878" x2="13.2501" y2="4.75415" gradientUnits="userSpaceOnUse">
<stop stop-color="#4837C9"/>
<stop offset="0.142857" stop-color="#5153F2"/>
<stop offset="0.285714" stop-color="#6794FC"/>
<stop offset="0.428571" stop-color="#2AB1D8"/>
<stop offset="0.571429" stop-color="#45CCB1"/>
<stop offset="0.714286" stop-color="#8FD67D"/>
<stop offset="0.857143" stop-color="#BECC45"/>
<stop offset="1" stop-color="#F2CB35"/>
</linearGradient>
<linearGradient id="paint1_linear_1367_1199" x1="13.2501" y1="20.4878" x2="13.2501" y2="4.75415" gradientUnits="userSpaceOnUse">
<stop stop-color="#4837C9"/>
<stop offset="0.142857" stop-color="#5153F2"/>
<stop offset="0.285714" stop-color="#6794FC"/>
<stop offset="0.428571" stop-color="#2AB1D8"/>
<stop offset="0.571429" stop-color="#45CCB1"/>
<stop offset="0.714286" stop-color="#8FD67D"/>
<stop offset="0.857143" stop-color="#BECC45"/>
<stop offset="1" stop-color="#F2CB35"/>
</linearGradient>
<linearGradient id="paint2_linear_1367_1199" x1="13.2501" y1="20.4878" x2="13.2501" y2="4.75415" gradientUnits="userSpaceOnUse">
<stop stop-color="#4837C9"/>
<stop offset="0.142857" stop-color="#5153F2"/>
<stop offset="0.285714" stop-color="#6794FC"/>
<stop offset="0.428571" stop-color="#2AB1D8"/>
<stop offset="0.571429" stop-color="#45CCB1"/>
<stop offset="0.714286" stop-color="#8FD67D"/>
<stop offset="0.857143" stop-color="#BECC45"/>
<stop offset="1" stop-color="#F2CB35"/>
</linearGradient>
<linearGradient id="paint3_linear_1367_1199" x1="13.2501" y1="20.4878" x2="13.2501" y2="4.75415" gradientUnits="userSpaceOnUse">
<stop stop-color="#4837C9"/>
<stop offset="0.142857" stop-color="#5153F2"/>
<stop offset="0.285714" stop-color="#6794FC"/>
<stop offset="0.428571" stop-color="#2AB1D8"/>
<stop offset="0.571429" stop-color="#45CCB1"/>
<stop offset="0.714286" stop-color="#8FD67D"/>
<stop offset="0.857143" stop-color="#BECC45"/>
<stop offset="1" stop-color="#F2CB35"/>
</linearGradient>
</defs>
</svg>
